<svg viewBox="0 0 27 26" fill="none" xmlns="http://www.w3.org/2000/svg">
<path fill-rule="evenodd" clip-rule="evenodd" d="M15.4766 0.329639C15.3007 0.301946 15.1211 0.309367 14.9481 0.351479C14.775 0.393591 14.6119 0.469569 14.4681 0.575075C14.3242 0.680581 14.2025 0.813548 14.1097 0.966386C14.017 1.11922 13.955 1.28894 13.9275 1.46584C13.9 1.64274 13.9074 1.82336 13.9492 1.99739C13.9911 2.17143 14.0666 2.33546 14.1716 2.48013C14.2765 2.6248 14.4087 2.74727 14.5606 2.84055C14.7126 2.93384 14.8814 2.9961 15.0573 3.02379C17.5233 3.42316 19.7497 4.74112 21.2937 6.71571C22.8378 8.69029 23.5866 11.1769 23.3912 13.6813C23.1958 16.1856 22.0705 18.5243 20.2391 20.2325C18.4076 21.9407 16.0041 22.8933 13.5063 22.9009C11.5129 22.9013 9.56536 22.2992 7.91635 21.1727C6.26734 20.0463 4.99298 18.4474 4.25857 16.5837C4.19689 16.412 4.10157 16.2545 3.97825 16.1206C3.85494 15.9867 3.70614 15.8791 3.54069 15.804C3.37523 15.729 3.19649 15.6882 3.01505 15.684C2.83361 15.6797 2.65317 15.7122 2.48443 15.7794C2.31569 15.8466 2.16209 15.9472 2.03272 16.0752C1.90336 16.2032 1.80087 16.356 1.73132 16.5246C1.66178 16.6932 1.62661 16.8741 1.62789 17.0566C1.62916 17.2392 1.66687 17.4196 1.73876 17.5871C2.82471 20.3384 4.83016 22.6231 7.41006 24.048C9.98997 25.4729 12.983 25.949 15.8742 25.3944C18.7655 24.8397 21.3741 23.2891 23.2513 21.0091C25.1285 18.7291 26.157 15.8625 26.1596 12.9024C26.1595 9.87058 25.0834 6.93839 23.1249 4.63352C21.1665 2.32865 18.4544 0.802463 15.4766 0.329639ZM11.9952 1.37858C12.0397 1.55214 12.0498 1.73283 12.0248 1.91032C11.9999 2.08781 11.9404 2.2586 11.8497 2.41293C11.7591 2.56726 11.639 2.7021 11.4965 2.80973C11.354 2.91735 11.1917 2.99566 11.0191 3.04016C10.5662 3.15734 10.1222 3.30679 9.69046 3.48736C9.52607 3.55612 9.34983 3.59164 9.1718 3.59189C8.99376 3.59215 8.81742 3.55714 8.65284 3.48885C8.48826 3.42057 8.33867 3.32035 8.2126 3.19393C8.08653 3.0675 7.98646 2.91734 7.91809 2.75202C7.84973 2.58669 7.81441 2.40945 7.81415 2.2304C7.8139 2.05135 7.84872 1.874 7.91661 1.70849C7.98451 1.54297 8.08416 1.39252 8.20987 1.26573C8.33558 1.13895 8.48489 1.0383 8.64927 0.969546C9.19517 0.740488 9.76096 0.549607 10.3448 0.398719C10.5173 0.354182 10.6968 0.344245 10.873 0.369477C11.0493 0.394709 11.2189 0.454615 11.3722 0.545774C11.5254 0.636933 11.6593 0.757559 11.7662 0.900765C11.8731 1.04397 11.9509 1.20513 11.9952 1.37858ZM6.61028 3.62007C6.86036 3.87955 6.99779 4.22826 6.99237 4.58959C6.98694 4.95091 6.83911 5.2953 6.58136 5.54707C5.90923 6.20589 5.33131 6.95536 4.86413 7.77402C4.77819 7.93392 4.66134 8.07494 4.52043 8.18876C4.37952 8.30259 4.21741 8.38693 4.04361 8.43683C3.86982 8.48672 3.68787 8.50117 3.50844 8.47931C3.32902 8.45746 3.15575 8.39974 2.99883 8.30956C2.84191 8.21938 2.7045 8.09856 2.59469 7.95419C2.48487 7.80982 2.40487 7.64483 2.35938 7.46892C2.31389 7.29301 2.30384 7.10972 2.32981 6.92984C2.35578 6.74996 2.41725 6.57712 2.51061 6.42149C3.10262 5.37949 3.83772 4.42662 4.69421 3.59099C4.95222 3.33948 5.29895 3.20127 5.65823 3.20672C6.01751 3.21218 6.35994 3.36085 6.61028 3.62007ZM2.5088 9.77555C2.86473 9.82601 3.18615 10.0166 3.40241 10.3053C3.61868 10.5941 3.71207 10.9573 3.66206 11.3153C3.59687 11.7821 3.56425 12.2529 3.56445 12.7242C3.56445 13.0858 3.42162 13.4326 3.16737 13.6883C2.91313 13.944 2.5683 14.0877 2.20874 14.0877C1.84918 14.0877 1.50435 13.944 1.25011 13.6883C0.995861 13.4326 0.853027 13.0858 0.853027 12.7242C0.853027 12.1188 0.894602 11.5207 0.977753 10.9354C1.02793 10.5774 1.21741 10.2542 1.50451 10.0367C1.79162 9.81918 2.15286 9.72525 2.5088 9.77555ZM8.9873 16.3237V9.48104C8.98746 9.17129 9.06632 8.86671 9.2164 8.59621C9.36648 8.32571 9.58279 8.09827 9.84482 7.93546C10.1068 7.77265 10.4059 7.67987 10.7136 7.66594C11.0213 7.652 11.3274 7.71736 11.6029 7.85582L18.4068 11.2771C18.7066 11.4283 18.9588 11.6603 19.1349 11.9474C19.3111 12.2344 19.4045 12.5651 19.4045 12.9024C19.4045 13.2397 19.3111 13.5703 19.1349 13.8574C18.9588 14.1444 18.7066 14.3764 18.4068 14.5276L11.6029 17.9489C11.3274 18.0874 11.0213 18.1527 10.7136 18.1388C10.4059 18.1249 10.1068 18.0321 9.84482 17.8693C9.58279 17.7065 9.36648 17.479 9.2164 17.2085C9.06632 16.938 8.98746 16.6335 8.9873 16.3237Z"  fill="#00A6FF"/>
</svg>
