<svg width="149" height="65" viewBox="0 0 149 65" fill="none" xmlns="http://www.w3.org/2000/svg">
<g filter="url(#filter0_d_26_650)">
<path fill-rule="evenodd" clip-rule="evenodd" d="M42.7385 8.88441C50.5208 18.644 49.9624 32.8475 41.8611 41.8999L55.083 58.4813C56.027 59.6653 55.8722 61.4376 54.7371 62.4399C53.6019 63.4422 51.9164 63.2949 50.9723 62.111L37.7667 45.5499C27.8708 52.5274 14.3612 50.6778 6.52976 40.8565C-1.86021 30.3347 -0.556013 14.6479 9.44276 5.81902C19.4415 -3.00983 34.3486 -1.63741 42.7385 8.88441ZM36.3761 39.5964C44.1046 32.7721 45.1127 20.6471 38.6277 12.5143C32.1427 4.38145 20.6204 3.32064 12.8918 10.1449C5.16331 16.9691 4.15524 29.0942 10.6402 37.227C17.1252 45.3598 28.6476 46.4206 36.3761 39.5964ZM37.1991 18.1895C41.2944 25.1339 38.989 33.7545 32.0497 37.4441C25.1104 41.1338 16.1651 38.4954 12.0698 31.551C7.9744 24.6067 10.2799 15.9861 17.2191 12.2964C24.1584 8.60671 33.1037 11.2452 37.1991 18.1895ZM19.1694 17.6853C19.1602 16.7562 20.2097 16.1982 21.0392 16.6911L33.6082 24.1597C34.4222 24.6434 34.4139 25.7804 33.5933 26.2168L21.1622 32.8265C20.3416 33.2628 19.3163 32.6753 19.3074 31.7636L19.1694 17.6853Z" fill="url(#paint0_linear_26_650)"/>
</g>
<path d="M57.0936 6.96467H60.1711L63.4262 17.4796H63.5446L66.7799 6.96467H69.8575L65.4385 20.7939H61.5126L57.0936 6.96467ZM71.6429 6.96467H74.7401V20.7742H71.6429V6.96467ZM77.1303 6.94494H82.5752C83.7983 6.94494 84.8768 7.22113 85.8105 7.77351C86.7443 8.31274 87.4677 9.10185 87.9806 10.1409C88.5067 11.1667 88.7697 12.3964 88.7697 13.83C88.7697 15.2898 88.5067 16.5393 87.9806 17.5783C87.4545 18.6173 86.718 19.4064 85.7711 19.9456C84.8373 20.4848 83.7588 20.7544 82.5357 20.7544H77.1303V6.94494ZM81.9636 17.9925C83.0421 17.9925 83.8969 17.6835 84.5282 17.0653C85.1595 16.4472 85.4752 15.3687 85.4752 13.83C85.4752 12.2912 85.1595 11.2127 84.5282 10.5946C83.9101 9.97646 83.0552 9.66739 81.9636 9.66739H80.1092V17.9925H81.9636ZM93.5785 9.64766V12.5871H98.8262V14.9742H93.5785V18.0912H99.8125V20.7742H90.4813V6.96467H99.8125V9.64766H93.5785ZM107.751 20.9517C106.37 20.9517 105.2 20.6361 104.24 20.0048C103.28 19.3603 102.556 18.5055 102.07 17.4402C101.596 16.3617 101.359 15.1715 101.359 13.8694C101.359 12.5674 101.603 11.3706 102.089 10.2789C102.576 9.18734 103.299 8.31932 104.259 7.67487C105.219 7.01728 106.383 6.68848 107.751 6.68848C109.093 6.68848 110.237 7.0107 111.184 7.65514C112.144 8.29959 112.861 9.17419 113.334 10.2789C113.821 11.3706 114.064 12.574 114.064 13.8891C114.064 15.2043 113.821 16.4012 113.334 17.4796C112.861 18.5449 112.144 19.3932 111.184 20.0245C110.237 20.6427 109.093 20.9517 107.751 20.9517ZM107.731 18.2095C108.705 18.2095 109.454 17.7953 109.98 16.9667C110.52 16.1381 110.789 15.0991 110.789 13.8497C110.789 12.6134 110.526 11.5678 110 10.713C109.474 9.85809 108.718 9.43065 107.731 9.43065C107.061 9.43065 106.489 9.63451 106.015 10.0422C105.555 10.4499 105.206 10.9892 104.97 11.6599C104.746 12.3306 104.634 13.0606 104.634 13.8497C104.634 15.0728 104.897 16.1052 105.423 16.947C105.962 17.7887 106.732 18.2095 107.731 18.2095ZM63.9983 41.9517C62.67 41.9517 61.5258 41.6295 60.5657 40.9851C59.6187 40.3275 58.8954 39.4529 58.3956 38.3613C57.909 37.2696 57.6657 36.086 57.6657 34.8102C57.6657 33.5345 57.909 32.3574 58.3956 31.2789C58.8954 30.1873 59.6187 29.3193 60.5657 28.6749C61.5258 28.0173 62.67 27.6885 63.9983 27.6885C65.616 27.6885 66.9378 28.1619 67.9636 29.1089C68.9895 30.0558 69.6536 31.2789 69.9561 32.7783H66.9772C66.8194 32.0944 66.4775 31.5223 65.9514 31.0619C65.4385 30.6016 64.8006 30.3715 64.0378 30.3715C62.9856 30.3715 62.1899 30.7858 61.6507 31.6143C61.1246 32.4297 60.8616 33.495 60.8616 34.8102C60.8616 36.1517 61.1246 37.2302 61.6507 38.0456C62.1899 38.861 62.9856 39.2687 64.0378 39.2687C64.7874 39.2687 65.4121 39.0451 65.9119 38.598C66.4248 38.1508 66.7668 37.6182 66.9378 37H69.8772C69.5879 38.4467 68.9303 39.637 67.9044 40.5708C66.8917 41.4914 65.5897 41.9517 63.9983 41.9517ZM77.7741 41.9517C76.3931 41.9517 75.2226 41.6361 74.2625 41.0048C73.3024 40.3603 72.5791 39.5055 72.0924 38.4402C71.619 37.3617 71.3822 36.1715 71.3822 34.8694C71.3822 33.5674 71.6255 32.3706 72.1122 31.2789C72.5988 30.1873 73.3221 29.3193 74.2822 28.6749C75.2423 28.0173 76.4063 27.6885 77.7741 27.6885C79.1156 27.6885 80.2598 28.0107 81.2067 28.6551C82.1668 29.2996 82.8836 30.1742 83.357 31.2789C83.8437 32.3706 84.087 33.574 84.087 34.8891C84.087 36.2043 83.8437 37.4012 83.357 38.4796C82.8836 39.5449 82.1668 40.3932 81.2067 41.0245C80.2598 41.6427 79.1156 41.9517 77.7741 41.9517ZM77.7543 39.2095C78.7276 39.2095 79.4772 38.7953 80.0033 37.9667C80.5425 37.1381 80.8122 36.0991 80.8122 34.8497C80.8122 33.6134 80.5491 32.5678 80.023 31.713C79.497 30.8581 78.7407 30.4307 77.7543 30.4307C77.0836 30.4307 76.5115 30.6345 76.038 31.0422C75.5777 31.4499 75.2292 31.9892 74.9924 32.6599C74.7689 33.3306 74.6571 34.0606 74.6571 34.8497C74.6571 36.0728 74.9201 37.1052 75.4462 37.947C75.9854 38.7887 76.7548 39.2095 77.7543 39.2095ZM85.9154 27.9647H89.4861L94.5364 37.0592H94.5956V27.9647H97.6337V41.7939H94.0235L89.0126 33.0347H88.9534V41.7939H85.9154V27.9647ZM109.672 30.6477H106.043V41.7742H102.985V30.6477H99.3548V27.9647H109.672V30.6477ZM114.462 30.6477V33.5871H119.71V35.9742H114.462V39.0912H120.696V41.7742H111.365V27.9647H120.696V30.6477H114.462ZM122.539 27.9647H126.11L131.16 37.0592H131.219V27.9647H134.257V41.7939H130.647L125.636 33.0347H125.577V41.7939H122.539V27.9647ZM146.296 30.6477H142.666V41.7742H139.608V30.6477H135.978V27.9647H146.296V30.6477ZM63.0514 62.9517C61.9466 62.9517 60.9865 62.7347 60.1711 62.3007C59.3688 61.8667 58.7573 61.3012 58.3364 60.6041C57.9287 59.8939 57.7249 59.1574 57.7249 58.3946V58.2368H61.0983V58.3749C61.0983 58.8483 61.2693 59.2823 61.6112 59.6769C61.9532 60.0715 62.453 60.2687 63.1106 60.2687C63.6761 60.2687 64.1298 60.1241 64.4718 59.8347C64.8137 59.5454 64.9847 59.164 64.9847 58.6905C64.9847 58.2696 64.8335 57.9343 64.531 57.6844C64.2285 57.4213 63.8602 57.2438 63.4262 57.1517L61.848 56.8361C60.9273 56.6257 60.0659 56.2311 59.2636 55.6524C58.4614 55.0737 58.0602 54.1268 58.0602 52.8116C58.0602 51.9567 58.2641 51.2202 58.6718 50.6021C59.0927 49.9839 59.6713 49.5105 60.4078 49.1817C61.1444 48.8529 61.9795 48.6885 62.9133 48.6885C63.9786 48.6885 64.8992 48.8923 65.6752 49.3C66.4511 49.7078 67.0364 50.2404 67.431 50.898C67.8255 51.5424 68.0228 52.2198 68.0228 52.93V53.0286H64.6493V52.9694C64.6493 52.5486 64.4981 52.1606 64.1956 51.8055C63.9063 51.4372 63.4394 51.2531 62.7949 51.2531C62.2951 51.2531 61.894 51.3912 61.5915 51.6674C61.3022 51.9436 61.1575 52.3053 61.1575 52.7524C61.1575 53.1864 61.3219 53.5284 61.6507 53.7783C61.9795 54.0282 62.3741 54.1991 62.8344 54.2912L64.4323 54.6463C65.4713 54.8699 66.3591 55.2907 67.0956 55.9089C67.8321 56.527 68.2004 57.4279 68.2004 58.6116C68.2004 59.4796 67.9768 60.2424 67.5296 60.9C67.0824 61.5576 66.4643 62.064 65.6752 62.4191C64.8992 62.7742 64.0246 62.9517 63.0514 62.9517ZM73.1379 51.6477V54.5871H78.3855V56.9742H73.1379V60.0912H79.3719V62.7742H70.0406V48.9647H79.3719V51.6477H73.1379ZM89.0663 59.5783H84.6472L83.6608 62.7742H80.5438L85.4561 48.9647H88.3166L93.1894 62.7742H90.0724L89.0663 59.5783ZM88.3166 57.2306L86.8962 52.7721H86.7778L85.3969 57.2306H88.3166ZM99.1443 57.9408H97.5463V62.7742H94.4885V48.9647H99.7361C100.828 48.9647 101.748 49.1751 102.498 49.596C103.261 50.0168 103.826 50.5758 104.195 51.2728C104.563 51.9567 104.747 52.6998 104.747 53.5021C104.747 54.3964 104.523 55.2052 104.076 55.9286C103.629 56.6388 102.971 57.1715 102.103 57.5266L105.063 62.7742H101.847L99.1443 57.9408ZM97.5463 55.4354H99.2429C99.9531 55.4354 100.552 55.2907 101.038 55.0014C101.525 54.6989 101.768 54.1991 101.768 53.5021C101.768 52.8313 101.525 52.3579 101.038 52.0817C100.565 51.7923 99.9663 51.6477 99.2429 51.6477H97.5463V55.4354ZM112.547 62.9517C111.219 62.9517 110.075 62.6295 109.115 61.9851C108.168 61.3275 107.444 60.4529 106.945 59.3613C106.458 58.2696 106.215 57.086 106.215 55.8102C106.215 54.5345 106.458 53.3574 106.945 52.2789C107.444 51.1873 108.168 50.3193 109.115 49.6749C110.075 49.0173 111.219 48.6885 112.547 48.6885C114.165 48.6885 115.487 49.1619 116.513 50.1089C117.538 51.0558 118.203 52.2789 118.505 53.7783H115.526C115.368 53.0944 115.026 52.5223 114.5 52.0619C113.987 51.6016 113.35 51.3715 112.587 51.3715C111.535 51.3715 110.739 51.7858 110.2 52.6143C109.674 53.4297 109.411 54.495 109.411 55.8102C109.411 57.1517 109.674 58.2302 110.2 59.0456C110.739 59.861 111.535 60.2687 112.587 60.2687C113.336 60.2687 113.961 60.0451 114.461 59.598C114.974 59.1508 115.316 58.6182 115.487 58H118.426C118.137 59.4467 117.479 60.637 116.453 61.5708C115.441 62.4914 114.139 62.9517 112.547 62.9517ZM131.571 48.9647V62.7742H128.474V57.0531H123.285V62.7742H120.208V48.9647H123.285V54.6463H128.474V48.9647H131.571Z" fill="url(#paint1_linear_26_650)"/>
<defs>
<filter id="filter0_d_26_650" x="0.70313" y="0" width="55.2949" height="63.6987" filterUnits="userSpaceOnUse" color-interpolation-filters="sRGB">
<feFlood flood-opacity="0" result="BackgroundImageFix"/>
<feColorMatrix in="SourceAlpha" type="matrix" values="0 0 0 0 0 0 0 0 0 0 0 0 0 0 0 0 0 0 127 0" result="hardAlpha"/>
<feOffset dy="0.29687"/>
<feGaussianBlur stdDeviation="0.148435"/>
<feComposite in2="hardAlpha" operator="out"/>
<feColorMatrix type="matrix" values="0 0 0 0 0 0 0 0 0 0 0 0 0 0 0 0 0 0 0.25 0"/>
<feBlend mode="normal" in2="BackgroundImageFix" result="effect1_dropShadow_26_650"/>
<feBlend mode="normal" in="SourceGraphic" in2="effect1_dropShadow_26_650" result="shape"/>
</filter>
<linearGradient id="paint0_linear_26_650" x1="9.90752" y1="5.6708" x2="62.9023" y2="66.3352" gradientUnits="userSpaceOnUse">
<stop stop-color="#A4EB47"/>
<stop offset="1" stop-color="#00A6FF"/>
</linearGradient>
<linearGradient id="paint1_linear_26_650" x1="56.916" y1="33.3779" x2="148.044" y2="33.3779" gradientUnits="userSpaceOnUse">
<stop stop-color="#00A6FF"/>
<stop offset="1" stop-color="#A4EB47"/>
</linearGradient>
</defs>
</svg>
