<svg width="1920" height="443" viewBox="0 0 1920 443" fill="none" xmlns="http://www.w3.org/2000/svg">
<g filter="url(#filter0_di_74_112)">
<path fill-rule="evenodd" clip-rule="evenodd" d="M1837.21 209.112C1870.2 250.49 1867.34 311.064 1832.24 349.458L1907.04 443.269H1877.53L1814.87 364.677C1772.9 393.84 1716.14 386.149 1683.32 344.988C1647.98 300.666 1653.78 234.319 1696.27 196.797C1738.77 159.276 1801.86 164.79 1837.21 209.112ZM1809.73 339.081C1842.57 310.079 1847.05 258.796 1819.73 224.537C1792.42 190.279 1743.65 186.017 1710.8 215.019C1677.96 244.021 1673.48 295.304 1700.79 329.562C1728.11 363.821 1776.88 368.083 1809.73 339.081ZM1814.72 248.307C1831.97 277.559 1821.65 314.198 1791.66 330.141C1761.68 346.085 1723.39 335.295 1706.14 306.043C1688.88 276.79 1699.21 240.151 1729.19 224.208C1759.18 208.265 1797.47 219.054 1814.72 248.307ZM1736.54 247.686C1736.55 243.376 1741.4 240.796 1745.27 243.043L1797.29 273.216C1801.17 275.463 1801.16 280.851 1797.28 282.914L1745.17 310.622C1741.29 312.685 1736.44 309.877 1736.45 305.567L1736.54 247.686Z" fill="url(#paint0_linear_74_112)" fill-opacity="0.14" shape-rendering="crispEdges"/>
</g>
<path d="M1909.07 191.106V255.496H1882.66V289.426H1909.07V320.658H1867.62M1839.09 185.516V130.379H1882.47M1857.6 185.516H1877.46V210.963H1857.6M1866.27 27.8178V81.0263M1815.96 132.885V108.402H1899.43V152.357H1857.6M1777.02 155.827H1654.21V91.6295H1717.44V128.837M1622.02 113.8V66.7603H1717.44M1622.02 133.849V169.9H1596.18M1644.96 215.397V196.697H1669.63M1622.02 196.697V263.401H1641.87M1596.18 196.697V291.933H1574.98M1641.87 291.933H1615.08M1654.21 323.549H1625.87V379.842H1677.54M1646.5 350.732H1664.43M1702.21 410.11V426.496H1740.77V394.494M1774.32 407.603V442.305M1805.35 392.373V426.496H1833.69V413.965M1899.43 412.616H1909.07V426.496M1740.77 27.8178V128.837H1798.03V99.1481H1769.5V6M1839.09 18.9497V81.0263H1798.03V42.4694H1815.96M1815.96 152.357V168.551M1677.54 410.11V434.208H1596.18M1574.98 394.494H1480.51V442.497M1596.18 113.8V77.5562M1652.28 46.1441H1615.08V24.9929H1712.43V46.1441H1674.98M1856.44 339.936V355.166M1549.92 417.628H1507.5V442.69M1574.98 413.965V442.69M1891.14 61.9407V15.9281H1918.44M1693.73 392.373H1720.34M1909.07 352.274H1882.66V386.012H1909.07M1596.18 407.603C1636.59 407.603 1651.71 407.603 1654.21 407.603M1549.92 323.549H1596.18V355.166H1525.62V306.002M1890.76 233.326H1867.62M1599.85 374.83V383.313M1596.18 42.4694V18.9497M1654.21 175.684H1693.73M1891.14 81.0263H1921.03M1672.72 110.522H1698.17V137.705H1672.72V110.522Z" stroke="url(#paint1_linear_74_112)" stroke-opacity="0.14" stroke-width="11.9526" stroke-linecap="round" stroke-linejoin="round"/>
<g filter="url(#filter1_di_74_112)">
<path fill-rule="evenodd" clip-rule="evenodd" d="M83.8194 209.112C50.8251 250.49 53.6857 311.064 88.7861 349.458L13.9827 443.269H43.4904L106.158 364.677C148.122 393.84 204.88 386.149 237.701 344.988C273.043 300.666 267.246 234.319 224.753 196.797C182.26 159.276 119.162 164.79 83.8194 209.112ZM111.297 339.081C78.4525 310.079 73.9716 258.796 101.289 224.538C128.607 190.279 177.378 186.017 210.223 215.019C243.068 244.021 247.549 295.304 220.231 329.563C192.914 363.822 144.142 368.083 111.297 339.081ZM106.177 248.231C88.9261 277.483 99.2489 314.122 129.234 330.065C159.219 346.009 197.512 335.219 214.763 305.967C232.015 276.714 221.692 240.075 191.707 224.132C161.722 208.189 123.429 218.978 106.177 248.231ZM152.8 235.99C155.014 235.99 156.81 237.785 156.81 240V315C156.81 317.215 155.014 319.01 152.8 319.01C150.585 319.01 148.79 317.215 148.79 315V240C148.79 237.785 150.585 235.99 152.8 235.99ZM183.6 244.323C185.814 244.323 187.61 246.119 187.61 248.333V302.5C187.61 304.715 185.814 306.51 183.6 306.51C181.385 306.51 179.59 304.715 179.59 302.5L179.59 248.333C179.59 246.119 181.385 244.323 183.6 244.323ZM137.4 248.49C139.614 248.49 141.41 250.285 141.41 252.5L141.41 298.333C141.41 300.548 139.614 302.343 137.4 302.343C135.185 302.343 133.39 300.548 133.39 298.333V252.5C133.39 250.285 135.185 248.49 137.4 248.49ZM168.2 256.823C170.414 256.823 172.21 258.619 172.21 260.833V290C172.21 292.215 170.414 294.01 168.2 294.01C165.985 294.01 164.19 292.215 164.19 290V260.833C164.19 258.619 165.985 256.823 168.2 256.823ZM122 265.157C124.214 265.157 126.01 266.952 126.01 269.167V281.667C126.01 283.881 124.214 285.677 122 285.677C119.785 285.677 117.99 283.881 117.99 281.667V269.167C117.99 266.952 119.785 265.157 122 265.157ZM199 265.157C201.214 265.157 203.01 266.952 203.01 269.167V281.667C203.01 283.881 201.214 285.677 199 285.677C196.785 285.677 194.99 283.881 194.99 281.667V269.167C194.99 266.952 196.785 265.157 199 265.157Z" fill="url(#paint2_linear_74_112)" fill-opacity="0.14" shape-rendering="crispEdges"/>
</g>
<path d="M11.9525 191.106V255.496H38.364V289.426H11.9525V320.658H53.4012M81.9333 185.516V130.379H38.5568M63.426 185.516H43.5692V210.963H63.426M54.7507 27.8178V81.0263M105.067 132.885V108.402H21.5917V152.357H63.426M144.01 155.827H266.814V91.6295H203.58V128.837M299.009 113.8V66.7603H203.58M299.009 133.849V169.9H324.842M276.067 215.397V196.697H251.391M299.009 196.697V263.401H279.152M324.842 196.697V291.933H346.048M279.152 291.933H305.949M266.814 323.549H295.153V379.842H243.487M274.525 350.732H256.596M218.81 410.11V426.496H180.253V394.494M146.709 407.603V442.305M115.671 392.373V426.496H87.3313V413.965M21.5917 412.616H11.9525V426.496M180.253 27.8178V128.837H122.996V99.1481H151.529V6M81.9333 18.9497V81.0263H122.996V42.4694H105.067M105.067 152.357V168.551M243.487 410.11V434.208H324.842M346.048 394.494H440.513V442.497M324.842 113.8V77.5562M268.742 46.1441H305.949V24.9929H208.593V46.1441H246.043M64.5827 339.936V355.166M371.11 417.628H413.523V442.69M346.048 413.965V442.69M29.8815 61.9407V15.9281H2.58816M227.293 392.373H200.689M11.9525 352.274H38.364V386.012H11.9525M324.842 407.603C284.434 407.603 269.32 407.603 266.814 407.603M371.11 323.549H324.842V355.166H395.401V306.002M30.267 233.326H53.4012M321.179 374.83V383.313M324.842 42.4694V18.9497M266.814 175.684H227.293M29.8815 81.0263H-0.000147959M248.306 110.522H222.859V137.705H248.306V110.522Z" stroke="url(#paint3_linear_74_112)" stroke-opacity="0.14" stroke-width="11.9526" stroke-linecap="round" stroke-linejoin="round"/>
<defs>
<filter id="filter0_di_74_112" x="1658.67" y="171.9" width="249.9" height="274.414" filterUnits="userSpaceOnUse" color-interpolation-filters="sRGB">
<feFlood flood-opacity="0" result="BackgroundImageFix"/>
<feColorMatrix in="SourceAlpha" type="matrix" values="0 0 0 0 0 0 0 0 0 0 0 0 0 0 0 0 0 0 127 0" result="hardAlpha"/>
<feOffset dy="1.52241"/>
<feGaussianBlur stdDeviation="0.761203"/>
<feComposite in2="hardAlpha" operator="out"/>
<feColorMatrix type="matrix" values="0 0 0 0 0 0 0 0 0 0 0 0 0 0 0 0 0 0 0.25 0"/>
<feBlend mode="normal" in2="BackgroundImageFix" result="effect1_dropShadow_74_112"/>
<feBlend mode="normal" in="SourceGraphic" in2="effect1_dropShadow_74_112" result="shape"/>
<feColorMatrix in="SourceAlpha" type="matrix" values="0 0 0 0 0 0 0 0 0 0 0 0 0 0 0 0 0 0 127 0" result="hardAlpha"/>
<feOffset/>
<feGaussianBlur stdDeviation="3.80601"/>
<feComposite in2="hardAlpha" operator="arithmetic" k2="-1" k3="1"/>
<feColorMatrix type="matrix" values="0 0 0 0 0.105882 0 0 0 0 0.0980392 0 0 0 0 0.184314 0 0 0 1 0"/>
<feBlend mode="normal" in2="shape" result="effect2_innerShadow_74_112"/>
</filter>
<filter id="filter1_di_74_112" x="12.4605" y="171.9" width="249.899" height="274.414" filterUnits="userSpaceOnUse" color-interpolation-filters="sRGB">
<feFlood flood-opacity="0" result="BackgroundImageFix"/>
<feColorMatrix in="SourceAlpha" type="matrix" values="0 0 0 0 0 0 0 0 0 0 0 0 0 0 0 0 0 0 127 0" result="hardAlpha"/>
<feOffset dy="1.52241"/>
<feGaussianBlur stdDeviation="0.761203"/>
<feComposite in2="hardAlpha" operator="out"/>
<feColorMatrix type="matrix" values="0 0 0 0 0 0 0 0 0 0 0 0 0 0 0 0 0 0 0.25 0"/>
<feBlend mode="normal" in2="BackgroundImageFix" result="effect1_dropShadow_74_112"/>
<feBlend mode="normal" in="SourceGraphic" in2="effect1_dropShadow_74_112" result="shape"/>
<feColorMatrix in="SourceAlpha" type="matrix" values="0 0 0 0 0 0 0 0 0 0 0 0 0 0 0 0 0 0 127 0" result="hardAlpha"/>
<feOffset/>
<feGaussianBlur stdDeviation="3.80601"/>
<feComposite in2="hardAlpha" operator="arithmetic" k2="-1" k3="1"/>
<feColorMatrix type="matrix" values="0 0 0 0 0.105882 0 0 0 0 0.0980392 0 0 0 0 0.184314 0 0 0 1 0"/>
<feBlend mode="normal" in2="shape" result="effect2_innerShadow_74_112"/>
</filter>
<linearGradient id="paint0_linear_74_112" x1="1696.58" y1="194.711" x2="1964.7" y2="541.568" gradientUnits="userSpaceOnUse">
<stop stop-color="#A4EB47"/>
<stop offset="1" stop-color="#00A6FF"/>
</linearGradient>
<linearGradient id="paint1_linear_74_112" x1="1733.06" y1="26.4683" x2="1733.06" y2="442.883" gradientUnits="userSpaceOnUse">
<stop/>
<stop offset="0.344791" stop-color="#00A6FF"/>
<stop offset="0.975" stop-color="#A4EB47"/>
</linearGradient>
<linearGradient id="paint2_linear_74_112" x1="224.444" y1="194.711" x2="-43.6735" y2="541.568" gradientUnits="userSpaceOnUse">
<stop stop-color="#A4EB47"/>
<stop offset="1" stop-color="#00A6FF"/>
</linearGradient>
<linearGradient id="paint3_linear_74_112" x1="187.965" y1="26.4683" x2="187.965" y2="442.883" gradientUnits="userSpaceOnUse">
<stop/>
<stop offset="0.344791" stop-color="#00A6FF"/>
<stop offset="0.975" stop-color="#A4EB47"/>
</linearGradient>
</defs>
</svg>
